<?xml version="1.0" standalone="no"?>
<!DOCTYPE svg PUBLIC "-//W3C//DTD SVG 20010904//EN"
 "http://www.w3.org/TR/2001/REC-SVG-20010904/DTD/svg10.dtd">
<svg version="1.0" xmlns="http://www.w3.org/2000/svg"
 width="573.000000pt" height="436.000000pt" viewBox="0 0 573.000000 436.000000"
 preserveAspectRatio="xMidYMid meet">
<metadata>
Created by potrace 1.16, written by Peter Selinger 2001-2019
</metadata>
<g transform="translate(0.000000,436.000000) scale(0.100000,-0.100000)"
fill="#000000" stroke="none">
<path d="M1687 4343 c3 -7 12 -13 20 -13 16 0 63 -31 103 -67 27 -25 40 -23
19 3 -13 16 -12 16 8 5 22 -11 51 -51 37 -51 -3 0 3 -15 14 -34 11 -19 23 -64
27 -101 7 -60 11 -71 44 -100 21 -20 38 -29 42 -23 4 6 12 7 19 3 9 -6 9 -9 0
-15 -9 -6 0 -20 31 -49 41 -38 79 -60 45 -25 -23 22 -20 30 4 9 11 -10 17 -22
14 -27 -4 -5 3 -18 15 -29 14 -13 21 -32 21 -57 1 -26 9 -47 30 -72 32 -36 41
-100 19 -130 -9 -13 -10 -12 -5 3 3 9 1 17 -5 17 -5 0 -30 19 -56 43 -26 23
-44 37 -40 30 4 -6 3 -14 -2 -18 -6 -3 -8 4 -6 16 3 13 0 28 -6 35 -6 7 -9 39
-7 71 3 57 2 58 -24 61 -33 4 -35 -9 -13 -108 8 -36 14 -78 15 -93 0 -24 -2
-26 -16 -15 -45 38 -85 82 -99 108 -10 19 -20 27 -30 24 -10 -4 -15 0 -15 12
0 9 -3 15 -6 11 -21 -20 59 -127 106 -142 11 -3 22 -15 25 -25 4 -11 13 -26
21 -34 13 -13 11 -19 -15 -48 l-29 -33 -24 27 c-12 15 -33 41 -46 58 -17 21
-31 30 -50 29 l-27 -2 25 -4 c27 -5 60 -30 60 -46 0 -6 -10 -1 -23 11 -13 12
-36 22 -51 22 -21 0 -27 4 -22 15 3 8 1 15 -4 15 -6 0 -10 -7 -10 -16 0 -9 -5
-12 -12 -8 -7 4 -8 3 -4 -4 4 -7 22 -12 40 -12 33 0 62 -23 103 -85 19 -29 50
-122 45 -138 -4 -13 18 -47 30 -47 6 0 4 8 -5 18 -29 32 -18 37 13 7 17 -16
30 -23 30 -17 0 7 -5 12 -11 12 -5 0 -7 5 -4 10 3 6 -1 10 -10 10 -9 0 -13 5
-10 10 3 6 0 10 -8 10 -8 0 -20 18 -27 44 -11 40 -10 46 11 70 12 14 44 37 71
51 52 27 77 24 98 -15 13 -25 13 -30 -5 -30 -8 0 -15 5 -15 10 0 18 -57 11
-84 -11 -14 -11 -26 -31 -26 -43 0 -22 27 -56 46 -56 4 0 -2 7 -14 16 -12 8
-22 23 -22 33 0 29 39 63 68 59 27 -3 44 -28 19 -28 -8 0 -21 -8 -28 -17 -11
-15 -11 -16 1 -5 16 13 50 16 50 4 0 -5 7 -17 16 -28 14 -18 15 -18 4 5 -9 17
-9 26 -1 34 35 35 -17 107 -77 107 -15 0 -18 5 -14 25 4 21 1 24 -14 18 -18
-6 -18 -6 -2 10 22 22 30 21 55 -5 11 -13 36 -37 56 -55 24 -20 37 -40 37 -56
0 -27 33 -70 45 -59 5 4 6 0 3 -9 -4 -9 -2 -22 3 -30 16 -25 10 36 -6 67 -8
16 -15 39 -15 51 0 12 -7 43 -15 68 -19 54 -12 74 16 49 19 -17 20 -17 13 1
-8 20 2 17 41 -14 11 -8 -12 17 -51 56 -68 68 -71 73 -77 128 -3 31 -2 67 3
80 5 14 5 37 -1 58 -5 19 -8 50 -7 68 2 26 -1 34 -16 37 -30 6 -39 -11 -26
-54 6 -22 10 -58 8 -82 l-3 -43 -31 28 c-16 15 -46 42 -65 59 -85 76 -91 88
-96 166 l-5 72 -55 51 c-31 27 -60 49 -65 47 -5 -1 -7 1 -4 6 3 5 -7 21 -23
36 -22 21 -36 26 -69 25 -28 -2 -38 -7 -35 -16z"/>
<path d="M2201 4262 c-1 -100 0 -105 34 -170 44 -83 121 -178 157 -193 14 -6
29 -20 32 -32 8 -32 7 -37 -8 -37 -7 0 -19 -7 -26 -15 -11 -14 -9 -14 16 0 16
8 37 15 47 15 19 0 23 30 7 60 -7 13 -7 21 0 25 6 4 10 58 10 131 0 118 1 127
25 158 20 27 25 44 25 94 0 47 -4 62 -14 62 -10 0 -16 -18 -21 -59 -4 -39 -15
-71 -31 -92 -21 -29 -24 -43 -24 -125 0 -105 -8 -154 -24 -154 -6 0 -24 14
-39 31 -15 18 -31 28 -38 23 -8 -4 -9 -3 -5 4 4 6 -4 28 -17 49 -66 104 -77
138 -78 235 0 57 -3 85 -8 73 l-8 -20 -5 20 c-3 11 -6 -26 -7 -83z"/>
<path d="M4092 3435 c-73 -74 -138 -135 -144 -135 -6 0 -6 6 3 18 7 9 -1 4
-19 -12 -18 -17 -32 -32 -32 -34 0 -3 9 3 20 13 11 10 20 13 20 8 0 -10 -237
-253 -246 -253 -3 0 -2 5 2 12 5 7 3 8 -5 4 -9 -6 -8 -13 6 -29 16 -19 16 -20
1 -8 -15 11 -19 11 -24 -3 -3 -9 -10 -16 -15 -16 -6 0 -5 10 1 23 11 22 11 22
-7 2 -10 -11 -29 -31 -43 -45 -14 -13 -16 -16 -4 -7 26 22 47 4 33 -28 -9 -18
-9 -18 -5 3 5 27 -14 30 -21 2 -6 -21 -32 -27 -49 -10 -8 8 -15 5 -25 -7 -13
-16 -12 -17 3 -5 10 8 18 9 22 3 10 -15 98 -9 92 6 -3 6 1 14 8 16 10 4 12 -1
8 -15 -6 -23 -9 -25 60 39 10 9 15 20 11 26 -3 6 -1 7 5 3 6 -3 14 -1 17 5 4
5 13 8 21 5 7 -3 16 0 20 6 4 7 3 8 -4 4 -7 -4 -12 -5 -12 -3 0 2 112 118 249
258 200 204 245 255 231 261 -10 4 -21 11 -25 17 -3 6 -9 11 -13 11 -4 0 -67
-61 -140 -135z"/>
<path d="M4787 3369 c-51 -12 -92 -45 -123 -97 -23 -38 -26 -53 -22 -112 l3
-67 -35 -23 c-19 -13 -66 -40 -105 -60 -38 -20 -82 -44 -97 -54 -16 -10 -35
-16 -43 -12 -9 3 -13 2 -10 -4 8 -12 -32 -33 -48 -24 -6 4 -9 4 -5 -1 9 -9 -9
-23 -77 -59 -53 -29 -70 -33 -41 -11 11 8 15 15 9 15 -14 0 -35 -25 -27 -33 3
-3 -11 -15 -33 -26 -21 -12 -45 -25 -53 -30 -126 -78 -172 -102 -183 -98 -8 3
-20 1 -28 -5 -11 -8 -10 -9 4 -4 30 10 18 -2 -30 -30 -27 -15 -59 -36 -72 -46
-13 -10 -31 -18 -40 -18 -10 0 -4 7 14 18 43 26 56 45 45 62 -6 10 -10 11 -10
3 0 -7 -13 -19 -30 -28 -27 -14 -30 -14 -39 3 -6 9 -11 13 -11 8 0 -5 7 -17
16 -27 14 -15 12 -19 -20 -39 -20 -12 -36 -23 -36 -24 0 -6 49 0 56 7 4 4 14
7 23 7 13 -1 12 -3 -3 -15 -23 -18 -14 -20 16 -4 16 8 18 13 8 19 -9 6 0 12
28 21 23 7 47 18 53 26 6 7 18 13 26 13 11 0 8 -6 -8 -21 l-24 -20 32 17 c18
10 29 22 26 27 -4 6 3 8 15 5 12 -4 20 -3 17 2 -3 4 1 12 8 17 16 13 58 23 52
13 -3 -4 4 -6 15 -3 11 3 17 9 15 14 -9 13 40 40 78 42 20 2 40 7 44 11 4 5 3
6 -4 2 -7 -4 -13 -4 -13 1 0 13 88 45 101 37 8 -4 9 -3 5 4 -9 15 37 34 61 25
12 -5 14 -3 8 7 -6 10 -4 12 8 7 9 -3 19 -1 23 5 4 7 3 8 -4 4 -7 -4 -12 -5
-12 -2 0 12 82 47 99 41 9 -3 26 2 37 11 18 15 18 15 -3 5 -34 -17 -40 -12
-13 9 14 11 33 20 42 20 9 0 20 5 23 10 3 6 13 10 21 10 9 0 12 -5 8 -11 -4
-7 2 -7 17 1 34 18 38 24 12 16 -47 -15 -20 4 68 48 89 45 91 45 117 28 19
-12 46 -17 98 -17 62 1 76 4 108 28 20 16 41 25 48 21 6 -4 8 -3 5 3 -4 6 3
32 14 59 24 54 22 130 -4 180 -21 39 -78 82 -119 89 -18 3 -40 7 -48 9 -8 2
-32 0 -53 -5z m75 -99 c39 -11 64 -42 52 -62 -4 -6 -3 -8 4 -4 6 3 13 -2 17
-13 7 -23 -12 -74 -25 -66 -5 3 -7 0 -4 -9 6 -17 -42 -46 -76 -46 -86 0 -135
114 -72 172 23 22 44 35 62 37 3 1 22 -4 42 -9z"/>
<path d="M1182 3298 c-7 -7 -12 -19 -12 -27 -1 -9 -23 -33 -50 -54 -52 -40
-55 -47 -50 -125 4 -81 -52 -109 -91 -44 -41 66 -54 75 -116 80 -32 3 -68 11
-80 19 -33 22 -65 8 -61 -25 3 -27 3 -27 98 -30 l95 -3 23 -34 c12 -19 22 -37
22 -41 0 -5 -71 -1 -140 8 -20 2 -26 -2 -28 -21 -2 -13 0 -27 5 -32 4 -4 49
-4 98 1 l90 9 22 -27 c26 -32 28 -42 8 -42 -8 0 -15 -4 -15 -10 0 -5 4 -10 9
-10 5 0 46 -34 90 -77 85 -80 97 -106 63 -136 -26 -24 -47 -21 -49 6 -1 12
-14 31 -28 42 -14 12 -25 25 -25 31 0 18 -65 74 -85 74 -18 0 -17 -3 8 -25 15
-14 33 -38 41 -53 18 -35 10 -92 -13 -91 -10 0 -11 2 -3 6 17 7 5 23 -18 23
-23 0 -80 70 -80 98 0 11 -7 27 -15 36 -8 8 -15 31 -15 51 0 50 -34 65 -88 41
-34 -15 -53 -16 -177 -7 -77 6 -143 11 -146 11 -3 0 -18 12 -34 26 -36 33 -76
30 -89 -8 -14 -40 17 -72 59 -63 41 8 63 9 178 7 93 -2 98 -3 92 -22 -8 -26
19 -64 108 -156 l70 -72 157 1 c86 0 162 -3 168 -7 24 -15 52 4 52 34 0 16 -4
32 -10 35 -17 11 -11 42 10 48 28 7 71 -6 84 -25 8 -13 3 -23 -22 -46 -32 -30
-37 -50 -33 -117 3 -44 54 -85 106 -85 22 0 49 6 60 14 18 12 30 8 110 -30 50
-24 102 -43 117 -43 27 -1 48 22 48 52 0 16 -88 77 -111 77 -8 0 12 -15 44
-32 59 -32 65 -42 44 -70 -14 -18 -26 -18 -70 0 -16 7 -33 12 -38 12 -5 0 -9
4 -9 9 0 5 -15 13 -32 16 -18 4 -45 14 -60 23 -25 15 -29 14 -46 -1 -21 -19
-52 -23 -52 -6 0 5 4 8 9 5 4 -3 17 2 27 10 10 9 13 13 7 9 -24 -12 -56 -14
-73 -5 -10 6 -21 5 -27 -1 -16 -16 -34 15 -40 73 -5 48 -3 56 22 81 35 35 98
37 141 6 l29 -21 -29 26 c-15 15 -41 30 -57 33 -33 6 -39 23 -10 23 45 0 25
17 -40 34 -77 20 -97 40 -61 64 12 8 22 18 22 23 0 15 -37 10 -50 -6 -22 -26
-30 -16 -30 37 0 40 3 49 12 40 7 -7 22 -12 35 -12 13 0 39 -17 62 -40 22 -22
43 -40 48 -40 4 -1 24 -14 43 -30 32 -28 66 -40 58 -22 -1 5 -41 42 -86 83
-46 41 -90 86 -98 102 -16 30 -48 36 -62 12 -6 -11 -8 -5 -9 20 -1 28 7 43 39
76 l40 41 42 -40 c57 -54 77 -57 116 -17 21 22 29 38 24 47 -6 11 -5 11 8 0
13 -10 17 -10 22 5 6 15 9 15 16 3 5 -8 6 -18 3 -24 -3 -5 -1 -6 5 -2 5 3 25
-6 44 -20 l33 -26 -32 30 -32 31 36 -6 c22 -4 34 -2 30 4 -4 5 6 8 24 5 19 -3
33 -12 38 -24 4 -11 23 -26 42 -34 l34 -14 -24 20 c-28 24 -15 27 19 3 l25
-16 -26 29 c-14 16 -29 38 -33 48 -6 17 -14 18 -75 12 -38 -3 -76 -8 -83 -11
-9 -4 -19 4 -26 20 -13 28 -39 32 -68 10 -16 -13 -17 -16 -4 -25 10 -6 11 -10
3 -10 -7 0 -13 -4 -13 -10 0 -5 8 -10 17 -10 13 0 10 -7 -12 -30 l-29 -30 -31
30 c-17 17 -35 27 -39 23 -4 -5 -6 -3 -5 2 2 6 -2 20 -9 31 -9 18 -9 24 4 35
19 15 27 17 117 26 86 8 97 23 18 23 -45 0 -61 4 -61 14 0 7 -10 16 -21 19
-16 4 -30 -4 -57 -33 -35 -40 -52 -43 -52 -11 0 10 -9 26 -20 36 -12 10 -18
25 -16 32 4 9 -1 9 -19 -3 -28 -18 -45 -12 -45 17 0 26 25 35 54 19 13 -6 32
-10 42 -7 14 3 11 5 -8 6 -15 0 -30 6 -33 11 -8 14 -38 13 -53 -2z m-8 -264
c3 -9 6 -57 6 -109 0 -114 -14 -135 -54 -83 -14 18 -41 53 -61 78 l-35 45 43
5 c39 5 42 7 42 35 0 21 6 32 20 37 31 9 32 9 39 -8z m-370 -175 c22 -13 48
-43 67 -77 18 -32 44 -70 57 -87 l25 -30 -44 -3 c-42 -4 -46 -1 -98 55 -63 69
-101 141 -80 154 21 13 35 11 73 -12z"/>
<path d="M4298 2688 c-21 -11 -38 -26 -38 -33 0 -7 -8 -16 -17 -18 -12 -3 -8
-5 9 -6 15 0 29 -5 32 -9 5 -8 -65 -6 -106 2 -10 2 -17 1 -16 -3 0 -3 0 -22
-1 -41 -2 -33 -5 -37 -73 -68 l-71 -32 5 -45 6 -45 -44 0 -43 0 -4 78 -3 77 0
-80 1 -80 85 -3 c51 -1 80 1 72 6 -10 7 -4 14 25 29 36 19 38 22 35 62 -2 23
1 47 6 54 6 7 12 26 15 42 2 17 5 -5 6 -47 l1 -76 68 -4 67 -3 -5 88 c-3 49
-1 95 3 103 5 9 3 14 -8 14 -22 0 -10 17 29 41 40 25 12 22 -36 -3z"/>
<path d="M494 2562 c-35 -24 -11 -80 30 -67 75 22 93 19 136 -24 22 -22 44
-41 48 -42 64 -5 77 -10 106 -38 38 -37 71 -44 40 -8 -11 12 -28 34 -37 50
-13 20 -25 27 -48 27 -22 0 -46 12 -79 40 -38 32 -56 40 -87 40 -22 0 -48 7
-59 15 -21 16 -34 18 -50 7z"/>
<path d="M1813 2507 c-50 -130 -67 -253 -37 -278 16 -12 17 -12 9 1 -8 13 -7
13 8 1 18 -14 22 -7 17 29 -1 8 2 11 6 7 5 -4 17 20 29 55 l21 62 44 0 c30 -1
34 0 13 3 l-32 4 24 56 c32 70 31 82 0 23 -13 -25 -24 -37 -25 -28 0 14 -5 15
-31 8 -18 -5 -36 -7 -40 -4 -5 3 -9 0 -9 -7 0 -7 -3 -10 -6 -6 -3 3 4 31 15
63 12 31 20 58 18 60 -2 2 -13 -20 -24 -49z"/>
<path d="M3853 2532 l-63 -3 0 -79 0 -80 -35 0 c-33 0 -35 -2 -51 -56 -9 -30
-13 -58 -10 -61 3 -3 18 -6 33 -7 15 -1 34 -5 42 -10 10 -7 12 -6 6 4 -5 9 -4
11 3 6 17 -10 16 -176 0 -176 -10 0 -10 -2 0 -9 9 -5 13 -29 13 -67 -1 -87 1
-98 18 -112 10 -8 10 -11 2 -6 -9 5 -12 3 -7 -5 4 -6 11 -9 15 -6 5 2 16 -4
25 -14 9 -10 34 -26 56 -36 22 -10 40 -21 40 -24 0 -7 66 -5 126 4 l44 6 0 44
c0 24 3 50 6 59 5 12 -4 14 -53 12 -64 -4 -111 3 -94 13 6 4 3 11 -9 19 -17
10 -18 9 -13 -6 5 -14 4 -15 -8 -4 -10 10 -15 51 -17 164 l-3 150 97 -3 c80
-3 98 -1 101 11 4 13 3 13 -6 0 -8 -11 -11 -2 -11 37 0 28 5 55 10 58 6 3 10
12 9 18 0 7 -2 8 -5 2 -2 -6 -42 -9 -99 -7 l-94 3 -3 82 -3 82 -62 -3z"/>
<path d="M2950 2468 c-25 -5 -83 -7 -130 -4 -71 4 -79 3 -47 -6 38 -10 38 -10
15 -24 -13 -7 -38 -21 -57 -30 -24 -11 -30 -18 -22 -23 7 -5 -11 -7 -41 -5
-47 3 -49 3 -18 -6 54 -13 170 -19 163 -7 -4 6 0 8 10 4 9 -3 17 -1 19 5 5 14
228 22 228 9 0 -12 79 -2 110 15 l25 13 -27 1 c-14 0 -28 5 -30 11 -2 6 -36
16 -76 22 -75 12 -91 23 -44 30 27 4 27 4 -3 4 -16 1 -50 -3 -75 -9z"/>
<path d="M997 2367 c-12 -5 -32 -6 -44 -4 -13 2 -20 0 -16 -6 4 -6 -5 -7 -23
-3 -18 4 -24 3 -16 -2 10 -7 7 -13 -13 -26 -26 -17 -26 -17 -15 3 7 14 7 21 0
21 -9 0 -14 -20 -11 -47 1 -6 -4 -15 -10 -19 -8 -5 -10 -3 -4 7 6 11 5 12 -6
1 -21 -19 -12 -126 14 -176 11 -23 20 -45 19 -49 -1 -5 2 -6 8 -2 6 4 16 2 23
-3 7 -6 32 -16 56 -23 35 -10 40 -14 25 -21 -11 -4 40 -6 113 -5 72 1 129 -1
127 -4 -2 -4 3 -10 12 -13 10 -4 13 -2 9 7 -4 6 1 3 9 -7 17 -21 22 -41 8 -32
-4 2 -14 -5 -22 -17 -12 -20 -12 -21 3 -8 11 8 17 9 17 2 0 -16 -34 -21 -135
-21 -49 0 -129 -2 -176 -6 l-87 -5 -11 -45 c-13 -51 -25 -60 -17 -11 5 28 5
29 -4 8 -6 -13 -8 -32 -5 -42 6 -17 18 -19 118 -20 72 0 105 -3 92 -9 -13 -5
23 -9 98 -9 76 -1 116 3 112 9 -3 6 -2 10 4 10 5 0 18 3 28 6 15 5 15 4 3 -5
-8 -6 -10 -11 -4 -11 5 0 19 7 30 16 10 8 13 13 7 9 -22 -11 -14 4 8 16 17 9
20 8 14 -3 -5 -7 3 -3 17 10 29 26 28 22 31 132 2 79 1 86 -23 110 l-26 25 26
-20 25 -20 -24 27 c-14 16 -29 24 -39 21 -11 -5 -13 -3 -7 7 5 9 4 11 -4 6 -6
-4 -21 -4 -32 -1 -14 5 -18 10 -10 14 7 4 -14 6 -46 4 -42 -2 -53 -1 -38 6 17
8 15 10 -12 8 -18 -1 -33 -4 -33 -7 0 -3 -34 -4 -75 -2 -41 2 -73 7 -70 12 3
4 -2 11 -11 14 -10 4 -13 2 -8 -7 4 -7 3 -9 -2 -4 -12 11 -13 57 -1 57 4 0 5
4 2 10 -11 17 42 22 212 19 l168 -4 0 65 0 65 -168 0 c-92 0 -178 -4 -190 -8z"/>
<path d="M1375 2370 c-3 -5 -1 -10 5 -10 6 0 9 -8 6 -17 -3 -10 -1 -25 5 -33
8 -11 9 -9 4 10 -6 20 -5 23 6 13 7 -7 12 -26 12 -42 0 -17 4 -28 8 -26 10 7
20 -25 12 -37 -3 -6 -1 -8 4 -5 6 4 14 0 17 -9 9 -24 7 -31 -4 -14 -5 8 -10
11 -10 5 0 -13 20 -43 20 -30 0 6 7 -3 15 -19 9 -16 13 -36 10 -43 -2 -8 -1
-12 4 -9 12 8 21 -18 14 -42 -2 -11 0 -23 6 -26 7 -5 9 0 5 11 -3 10 2 5 11
-10 9 -15 13 -36 10 -47 -3 -10 -1 -21 4 -25 7 -4 8 1 4 12 -5 14 -3 16 7 6 7
-7 14 -28 14 -47 1 -19 5 -38 9 -43 5 -4 5 1 1 12 -6 16 -4 18 6 8 7 -7 13
-26 13 -42 0 -17 4 -28 9 -25 4 3 8 -1 9 -8 5 -67 4 -100 -4 -105 -6 -4 -7 -1
-2 8 8 12 6 12 -8 0 -19 -15 -23 -26 -6 -15 7 4 10 1 7 -7 -3 -8 -12 -13 -21
-13 -9 1 -15 -2 -12 -6 3 -4 -2 -11 -11 -14 -8 -3 -12 -2 -9 4 3 6 1 10 -4 10
-6 0 -11 -4 -11 -9 0 -12 -59 -20 -66 -9 -3 4 -11 8 -17 7 -9 0 -9 -2 -1 -5 9
-4 9 -14 1 -39 -5 -19 -15 -31 -20 -28 -6 4 -8 0 -4 -10 3 -10 2 -17 -3 -17
-6 0 -10 -7 -10 -15 0 -12 16 -15 84 -15 47 0 88 5 91 10 9 15 27 12 20 -2 -4
-7 1 -4 9 6 9 11 16 17 16 13 0 -3 11 5 25 19 15 15 30 22 38 18 6 -4 9 -4 5
1 -8 9 16 60 33 71 6 3 3 -5 -6 -20 -10 -14 -15 -26 -12 -26 11 0 48 70 42 80
-3 5 -1 10 5 10 6 0 9 4 6 9 -9 14 5 42 17 34 6 -4 8 0 4 11 -6 15 35 126 47
126 3 0 3 -8 -1 -17 -3 -10 -3 -15 2 -11 4 4 9 29 10 54 1 34 7 52 23 64 12
10 19 20 16 23 -10 10 7 47 18 41 6 -4 8 -2 5 4 -9 13 2 44 13 37 10 -6 22 24
15 35 -3 5 -1 11 4 15 6 3 8 12 5 20 -4 8 1 18 10 21 9 3 14 10 11 14 -2 4 4
18 15 30 11 13 20 28 20 34 0 6 -5 4 -10 -4 -7 -10 -10 -11 -10 -2 0 7 7 15
15 18 8 4 12 11 8 17 -3 5 0 15 8 21 8 6 15 19 16 30 1 15 -4 17 -29 12 -17
-3 -49 -6 -72 -6 -40 0 -42 -1 -69 -58 -15 -32 -27 -63 -27 -68 0 -20 -38 -83
-45 -76 -5 4 -5 1 -1 -6 10 -16 -3 -54 -15 -46 -6 3 -10 0 -8 -7 3 -29 -1 -50
-11 -44 -5 3 -11 0 -11 -7 -1 -7 -3 -20 -4 -28 -1 -8 -3 -21 -4 -28 0 -7 -6
-10 -12 -7 -6 4 -10 1 -8 -6 3 -28 -1 -49 -11 -49 -5 0 -10 7 -10 15 0 8 5 15
11 15 5 0 7 5 4 10 -4 6 -10 8 -15 5 -11 -7 -22 24 -13 37 4 7 1 8 -6 4 -8 -5
-11 -3 -10 5 2 8 -2 24 -9 37 -7 12 -10 27 -7 32 3 5 1 18 -5 27 -10 16 -11
16 -5 -2 5 -16 4 -17 -6 -8 -7 7 -12 26 -12 43 0 16 -5 30 -10 30 -6 0 -7 3
-4 7 4 3 0 11 -7 17 -8 6 -17 22 -21 36 -5 19 -4 21 4 10 6 -9 11 -10 11 -3 0
6 -7 19 -16 27 -8 9 -13 16 -9 16 4 0 -1 7 -9 16 -18 18 -22 39 -4 28 7 -4 8
-3 4 5 -4 6 -12 9 -17 6 -5 -4 -9 1 -9 9 0 13 -14 16 -74 16 -41 0 -78 -4 -81
-10z"/>
<path d="M2053 2358 c-12 -14 -15 -59 -14 -295 1 -202 -2 -274 -10 -263 -9 13
-10 13 -6 0 3 -11 22 -16 75 -18 l72 -3 0 236 0 235 101 0 c63 0 98 -4 94 -10
-3 -5 0 -7 8 -4 8 3 27 -6 42 -20 15 -14 24 -26 19 -26 -5 0 -2 -4 5 -9 20
-13 28 -141 20 -316 l-4 -80 67 -1 67 -2 3 207 c2 113 -1 211 -5 218 -5 7 -5
18 -1 24 5 8 3 9 -6 4 -10 -6 -12 -4 -7 8 3 9 1 19 -5 23 -7 5 -8 2 -3 -6 5
-9 4 -11 -4 -6 -6 4 -10 15 -9 24 2 9 -4 17 -12 17 -8 0 -15 7 -15 15 0 8 -6
16 -12 16 -7 1 -18 2 -24 3 -5 0 -7 6 -3 13 5 8 2 9 -9 5 -10 -3 -17 -2 -17 3
0 5 -7 6 -17 3 -10 -4 -14 -2 -10 4 5 7 -1 9 -15 5 -14 -3 -19 -2 -14 6 4 7 1
12 -9 12 -9 0 -14 -3 -12 -7 3 -5 -67 -6 -155 -3 -141 4 -161 3 -175 -12z"/>
<path d="M2899 2370 c-26 -4 -56 -13 -68 -19 -12 -7 -26 -9 -31 -6 -6 3 -10 1
-10 -4 0 -6 -4 -10 -9 -8 -5 1 -26 -16 -47 -38 -22 -21 -32 -36 -24 -31 8 4 5
-1 -7 -12 -12 -11 -19 -22 -16 -26 4 -3 1 -6 -6 -6 -8 0 -11 -7 -7 -15 3 -8 2
-15 -3 -15 -5 0 -8 -51 -8 -114 1 -72 4 -113 10 -109 6 4 8 -3 4 -16 -4 -17 6
-33 50 -76 30 -29 58 -53 61 -54 4 0 36 -7 72 -15 36 -8 133 -16 215 -18 l150
-3 3 65 3 65 -136 -3 c-87 -2 -135 0 -135 7 0 6 -18 8 -46 4 -33 -4 -45 -2
-40 6 4 6 2 9 -7 5 -13 -5 -77 57 -77 74 0 4 106 5 236 4 l236 -4 -4 66 c-1
36 0 66 5 66 4 0 7 5 7 11 0 5 -5 7 -12 3 -8 -5 -9 -2 -4 11 4 10 2 21 -5 25
-6 4 -12 19 -12 34 -1 14 -6 26 -10 26 -5 0 -5 5 -2 10 4 6 3 9 -2 8 -4 -2 -9
0 -10 5 -8 23 -67 75 -80 70 -9 -4 -21 0 -27 8 -6 8 -22 14 -36 15 -14 0 -47
3 -75 6 -27 4 -71 3 -96 -2z m168 -147 c10 -10 14 -12 8 -3 -9 13 -8 13 7 2
10 -8 14 -20 11 -29 -4 -10 -2 -14 4 -10 8 5 33 -31 33 -48 0 -3 -76 -5 -170
-5 -109 0 -170 4 -170 10 0 6 12 8 28 5 25 -5 25 -5 5 4 -13 6 -23 14 -23 17
0 4 3 4 6 1 4 -4 15 8 24 26 24 45 44 52 138 51 67 -1 85 -5 99 -21z"/>
<path d="M4177 2092 c1 -156 3 -285 5 -287 2 -2 27 -5 56 -6 52 -3 74 -10 74
-24 0 -16 -25 -22 -70 -17 -48 5 -104 36 -80 44 7 3 1 7 -15 10 -22 4 -25 3
-16 -8 9 -11 7 -14 -9 -14 -27 0 -37 -17 -22 -35 10 -12 10 -15 -1 -16 -8 0
-5 -4 6 -9 27 -12 43 -12 25 0 -11 7 -3 10 30 12 25 1 65 4 90 5 25 2 59 5 77
6 33 2 35 17 2 17 -10 0 -18 3 -18 8 1 4 1 138 0 299 l-1 291 -67 4 -68 3 2
-283z"/>
<path d="M3475 2350 c-59 -24 -58 -23 -49 -7 4 6 -2 3 -14 -7 -26 -23 -29 -34
-4 -15 9 7 -2 -6 -26 -29 -23 -23 -42 -44 -42 -47 0 -3 0 -10 0 -16 0 -5 -5
-7 -11 -3 -8 5 -10 -1 -5 -19 3 -14 1 -29 -4 -32 -6 -4 -8 -11 -4 -16 3 -5 5
-93 4 -195 l-1 -185 66 3 65 3 0 170 c0 169 5 219 20 210 5 -3 6 3 3 13 -3 13
6 28 27 45 26 23 41 27 91 27 56 0 59 1 64 28 12 52 13 57 20 75 6 15 0 17
-71 17 -54 -1 -95 -7 -129 -20z"/>
<path d="M4488 2350 c-27 -11 -48 -17 -48 -13 0 3 -9 -2 -19 -11 -11 -10 -17
-25 -14 -34 5 -11 3 -13 -6 -7 -10 6 -11 2 -6 -15 4 -12 3 -20 -2 -17 -4 3 -8
-21 -8 -53 0 -32 3 -56 7 -54 5 3 9 -2 9 -10 3 -31 4 -36 10 -33 3 1 20 -10
37 -25 35 -29 86 -47 142 -49 33 -2 33 -2 -10 -10 -29 -4 3 -7 95 -6 131 2
140 0 137 -17 -2 -11 1 -15 7 -11 12 7 15 -14 5 -39 -3 -8 -12 -12 -21 -9 -11
4 -14 2 -9 -5 5 -8 -16 -11 -78 -11 -47 0 -90 -2 -96 -6 -5 -3 -10 -1 -10 4 0
6 -16 11 -35 11 -19 0 -35 -4 -35 -10 0 -6 -30 -10 -70 -10 -60 0 -70 -3 -71
-17 0 -16 -1 -15 -8 2 -5 12 -7 -2 -7 -38 1 -53 3 -57 26 -58 23 -1 23 -2 -5
-8 -16 -4 69 -7 190 -7 121 1 200 4 175 8 -39 5 -37 6 18 4 34 -1 57 1 51 5
-11 6 36 24 57 20 6 0 24 15 39 35 23 30 27 46 29 111 1 41 0 70 -2 63 -2 -6
-16 8 -32 32 -19 30 -24 47 -17 56 6 8 6 12 -1 12 -6 0 -12 -5 -14 -10 -2 -7
-18 -5 -43 6 -28 12 -79 18 -168 22 -104 4 -132 8 -150 23 -20 17 -21 20 -7
44 l15 27 188 1 c103 1 184 3 179 5 -5 1 -6 16 -4 33 3 23 7 28 14 18 7 -10 8
-5 3 14 -4 21 -3 27 6 21 9 -5 10 -2 6 10 -4 10 -7 20 -7 22 0 2 -89 4 -197 3
-172 0 -204 -3 -245 -19z"/>
<path d="M552 2333 c-78 -27 -132 -109 -132 -199 0 -91 72 -183 159 -204 109
-26 231 39 247 132 4 21 11 35 16 32 5 -3 0 9 -11 27 -15 24 -19 45 -16 78 4
35 3 40 -4 21 -8 -23 -9 -23 -10 11 -1 39 -45 90 -94 108 -39 15 -104 12 -155
-6z m128 -110 c59 -34 66 -99 16 -149 -44 -44 -82 -45 -125 -5 -44 41 -44 96
1 140 36 35 66 39 108 14z"/>
<path d="M3670 2030 c0 -6 -20 -32 -44 -58 -42 -45 -76 -100 -76 -121 0 -6
-20 -40 -45 -77 -28 -40 -45 -76 -45 -94 0 -33 44 -90 70 -90 18 0 95 106 123
170 42 96 64 211 48 253 -10 26 -31 38 -31 17z"/>
<path d="M1809 1847 c-7 -17 -15 -36 -17 -41 -3 -5 0 -6 5 -3 16 10 48 -82 34
-96 -6 -6 -11 -18 -11 -26 0 -13 2 -13 9 -2 6 10 18 -4 42 -50 24 -44 35 -57
38 -44 6 33 29 48 64 41 24 -5 42 -21 71 -62 55 -76 163 -180 254 -243 59 -41
33 -15 -36 37 -80 59 -186 169 -233 241 -18 27 -37 47 -42 44 -6 -3 -7 -1 -3
6 4 6 -4 32 -18 57 -14 26 -26 51 -26 56 0 18 -62 88 -90 103 -27 14 -29 14
-41 -18z"/>
<path d="M1387 1794 c-4 -4 -7 -17 -7 -29 0 -22 -5 -24 -223 -71 l-78 -17 -30
36 c-20 24 -39 37 -55 37 -21 0 -24 -5 -24 -32 0 -18 7 -42 15 -52 41 -54 -5
-144 -67 -132 -58 12 -66 46 -42 189 5 32 4 37 -12 37 -45 -1 -104 -82 -104
-143 0 -48 23 -93 68 -134 31 -29 42 -33 92 -33 85 0 149 45 174 123 3 10 15
17 33 17 14 0 52 7 82 14 31 8 89 22 129 32 87 20 103 37 99 109 -2 42 -5 50
-22 53 -12 2 -24 0 -28 -4z"/>
<path d="M2640 1787 c0 -8 12 -24 26 -38 15 -13 35 -37 45 -54 12 -19 19 -24
19 -14 0 9 10 19 23 23 29 8 186 8 226 0 31 -6 31 -7 14 -27 -18 -19 -18 -20
4 -6 22 13 48 10 118 -15 20 -8 20 -7 1 8 -11 9 -18 16 -15 17 24 4 47 9 68
14 14 4 28 6 30 5 2 -1 7 4 11 10 5 9 19 6 50 -10 23 -12 44 -20 46 -17 4 4
-71 42 -150 76 -53 23 -59 25 -53 14 3 -5 -29 -9 -71 -10 -54 -2 -72 1 -62 8
10 6 -9 7 -60 3 -56 -4 -86 -2 -119 10 -55 20 -151 22 -151 3z"/>
<path d="M1253 1563 c-16 -6 -17 -39 -3 -48 17 -11 2 -23 -53 -43 -28 -11 -86
-36 -127 -55 -41 -19 -92 -41 -113 -48 -36 -13 -39 -12 -49 6 -27 48 -113 95
-173 95 -84 0 -194 -85 -214 -166 -24 -93 -6 -156 60 -223 40 -41 56 -49 98
-55 75 -10 130 2 179 39 62 48 82 78 89 135 5 44 10 53 32 61 14 6 49 21 76
34 28 13 86 38 130 57 44 18 126 56 183 85 56 29 102 48 102 43 0 -13 41 -23
51 -13 6 6 1 20 -11 36 -12 15 -18 28 -13 28 4 1 -14 5 -42 9 -27 3 -67 3 -89
-2 -33 -7 -41 -6 -53 12 -14 19 -34 24 -60 13z m-483 -228 c37 -19 50 -43 50
-92 0 -82 -91 -123 -145 -65 -22 23 -25 35 -23 81 3 50 5 55 38 72 42 23 43
23 80 4z"/>
<path d="M1927 1533 c23 -36 24 -37 78 -106 l46 -58 -175 -177 -175 -176 -36
17 c-20 10 -41 15 -46 12 -5 -4 -9 -25 -9 -48 -1 -58 -29 -113 -92 -176 -50
-52 -56 -54 -110 -57 -91 -5 -132 -34 -159 -112 -9 -25 -8 -44 1 -79 37 -131
232 -142 286 -15 10 25 14 52 10 82 l-6 45 78 78 c69 68 82 77 105 72 23 -6
27 -3 32 22 4 15 9 37 12 48 3 11 37 54 77 95 39 41 58 63 41 50 -16 -14 -38
-35 -48 -47 -10 -13 -23 -23 -29 -23 -7 0 -6 5 1 14 9 11 9 15 -1 20 -10 5
-10 7 0 12 6 3 12 10 12 16 0 6 -6 6 -15 -2 -8 -6 -28 -13 -45 -14 l-30 -2 27
30 c26 27 105 109 249 258 l54 56 -58 79 c-32 43 -62 86 -65 96 -4 9 -11 17
-17 17 -6 0 -3 -12 7 -27z m-495 -858 c35 -32 42 -58 26 -92 -10 -22 -21 -29
-50 -31 -49 -4 -78 26 -78 81 0 66 53 88 102 42z"/>
<path d="M1735 1528 c-22 -11 -66 -40 -97 -64 -32 -24 -60 -39 -63 -34 -3 6
-14 14 -25 20 -20 11 -22 -2 -6 -29 6 -10 3 -18 -10 -27 -26 -18 -34 -24 -77
-61 l-37 -33 -41 22 c-76 39 -173 26 -197 -27 -7 -14 -12 -53 -12 -86 0 -56 3
-64 35 -96 35 -35 37 -36 96 -29 79 8 105 31 121 109 8 38 19 62 31 69 23 12
47 4 47 -17 0 -8 5 -15 11 -15 14 0 109 58 124 74 5 7 33 29 60 51 76 58 145
127 145 145 -1 23 -25 50 -46 50 -10 -1 -37 -10 -59 -22z"/>
<path d="M4715 1320 c45 -55 131 -129 150 -129 19 1 19 1 -1 7 -25 8 -108 81
-101 89 3 3 25 -14 50 -36 l44 -41 102 0 c55 0 101 -3 101 -8 0 -4 -37 -6 -82
-6 l-83 2 75 -7 c41 -3 81 -10 89 -15 10 -6 12 -6 7 2 -13 21 12 13 41 -13 15
-13 23 -25 16 -25 -6 0 -19 7 -27 16 -9 9 -16 11 -16 4 0 -6 13 -23 28 -38 16
-15 36 -39 45 -54 22 -36 53 -45 78 -22 28 25 25 68 -6 82 -14 6 -32 9 -40 6
-10 -4 -38 11 -75 40 l-58 46 -99 0 -98 0 -58 57 c-31 31 -60 53 -64 50 -3 -4
-13 -1 -22 5 -9 8 -8 3 4 -12z"/>
<path d="M2268 1048 c12 -6 22 -15 22 -20 0 -9 -40 -69 -52 -78 -4 -3 -18 -21
-31 -41 -21 -31 -22 -38 -11 -54 32 -43 7 -114 -51 -149 -36 -22 -40 -23 -52
-8 -7 10 -13 12 -13 7 0 -6 -9 -11 -20 -12 -11 -1 -18 2 -15 7 4 6 -2 7 -12 3
-11 -4 -15 -2 -10 3 5 5 33 9 62 9 30 0 60 6 66 12 9 9 7 11 -10 6 -15 -4 -21
-1 -21 11 0 9 5 16 12 16 6 0 9 3 6 6 -4 3 -15 1 -27 -5 -25 -14 -68 3 -76 31
-17 53 40 86 81 47 13 -12 24 -32 24 -43 0 -15 3 -17 11 -9 9 9 8 18 -5 37 -9
15 -21 26 -27 26 -6 0 -9 6 -6 13 6 15 -30 21 -39 6 -4 -6 -13 -4 -23 5 -16
15 -20 14 -41 -4 -20 -17 -21 -23 -11 -42 8 -16 10 -17 6 -4 -3 12 2 26 14 37
25 23 34 13 15 -17 -9 -12 -15 -31 -14 -41 4 -39 1 -45 -15 -29 -8 8 -15 20
-15 26 0 6 -4 9 -9 6 -13 -9 -4 63 11 81 7 9 31 24 53 34 22 10 33 19 24 19
-24 0 -82 -42 -97 -70 -8 -15 -11 -47 -9 -79 3 -48 8 -59 38 -83 47 -39 94
-46 139 -21 67 39 96 108 69 167 -10 22 -8 30 17 63 45 59 74 103 74 113 0 10
-33 30 -47 29 -4 0 2 -5 15 -11z"/>
<path d="M1247 1039 c-13 -8 -17 -18 -13 -34 5 -19 -10 -40 -89 -120 -95 -96
-126 -115 -188 -115 -21 0 -45 -16 -95 -65 -36 -36 -61 -65 -55 -65 6 0 18 -3
27 -6 9 -4 38 16 80 55 51 47 72 61 96 61 46 0 60 10 182 135 l111 115 96 0
c66 0 91 3 81 10 -8 5 -49 10 -91 10 -50 0 -82 5 -95 15 -23 17 -24 17 -47 4z"/>
<path d="M2748 1037 l52 -10 0 -329 0 -328 -46 -47 c-46 -46 -74 -96 -74 -130
0 -15 2 -15 15 3 14 18 14 18 15 -8 0 -20 -4 -26 -15 -22 -35 14 -2 -77 45
-125 29 -28 93 -51 107 -37 4 3 -5 6 -19 6 -29 0 -90 38 -95 60 -3 8 4 5 14
-7 10 -13 32 -27 50 -32 28 -8 32 -7 36 12 4 22 4 22 6 0 0 -13 5 -23 10 -23
4 0 6 11 3 25 -2 14 -11 25 -19 25 -18 0 -48 29 -38 38 3 4 12 -1 19 -11 7 -9
28 -18 47 -20 47 -4 92 47 86 95 l-4 33 -1 -36 c-4 -70 -78 -102 -132 -58 -33
28 -36 103 -6 125 30 22 86 17 115 -8 l26 -23 -24 27 c-19 22 -33 28 -66 28
-48 0 -71 -20 -81 -68 -7 -33 -24 -44 -24 -16 0 9 -6 14 -13 11 -8 -3 -18 7
-26 24 -10 24 -10 32 6 56 22 35 34 44 51 38 7 -3 11 -1 8 4 -3 5 3 11 14 14
18 5 19 17 20 361 l0 356 -22 0 c-13 0 -39 2 -58 4 -19 2 -11 -1 18 -7z"/>
<path d="M2425 810 c-3 -5 -1 -10 5 -10 6 0 8 -5 5 -10 -4 -6 -11 -8 -16 -5
-5 4 -9 1 -9 -4 0 -6 -5 -11 -10 -11 -7 0 -7 7 0 23 11 21 10 21 -4 3 -9 -10
-13 -23 -10 -28 4 -6 -24 -8 -65 -7 -50 2 -75 -2 -84 -11 -10 -12 -9 -12 6 -1
9 7 17 10 17 5 0 -12 132 -5 148 8 22 18 25 1 12 -62 -9 -43 -16 -58 -23 -51
-17 17 -47 13 -47 -5 0 -10 5 -14 16 -10 9 3 12 2 8 -5 -3 -6 -10 -23 -15 -37
l-9 -27 4 28 c2 17 -1 26 -8 24 -6 -2 -11 -24 -11 -50 0 -25 -2 -44 -4 -42 -2
3 -13 0 -25 -6 -19 -9 -19 -9 -3 4 16 14 24 47 10 47 -3 0 -35 -29 -71 -65
-35 -36 -68 -65 -72 -65 -15 0 -22 -38 -11 -59 19 -34 -5 -33 -51 2 -46 36
-47 38 -27 125 10 47 14 52 38 52 22 0 36 14 84 88 32 48 47 74 33 57 -17 -20
-26 -25 -26 -14 0 8 6 21 13 29 10 12 9 12 -5 1 -10 -7 -18 -19 -18 -25 0 -21
-45 -56 -71 -56 -29 0 -43 -9 -57 -36 -7 -14 -8 -24 -1 -31 7 -7 3 -21 -10
-45 -12 -19 -24 -55 -27 -80 -6 -44 -5 -46 38 -81 40 -33 50 -36 118 -39 l75
-3 3 -78 c3 -73 1 -82 -28 -125 -16 -26 -41 -60 -55 -77 -33 -38 -32 -45 8
-45 29 0 36 7 71 62 34 54 41 74 46 138 4 41 8 65 8 53 1 -13 9 -23 17 -23 8
0 15 -4 15 -9 0 -10 12 -18 94 -61 41 -21 46 -27 41 -50 -3 -15 1 -39 10 -56
8 -16 15 -35 15 -42 0 -7 5 -10 10 -7 6 3 10 15 10 26 0 11 7 22 15 25 9 4 15
19 15 39 0 18 -7 38 -15 45 -11 9 -15 33 -15 92 l0 79 46 49 c26 28 51 50 55
50 11 0 12 -121 1 -135 -4 -5 -16 -15 -27 -21 -11 -6 -21 -19 -23 -28 -6 -27
31 -17 59 17 24 29 27 42 30 124 2 50 2 90 -1 88 -8 -5 4 203 13 211 4 4 7
-16 7 -45 0 -36 4 -50 11 -45 7 4 9 0 5 -14 -7 -22 18 -39 30 -20 4 6 3 8 -4
4 -6 -3 -13 -2 -17 4 -3 5 -3 10 2 10 4 0 6 23 5 50 -3 31 1 57 9 68 11 14 11
15 -1 5 -19 -17 -27 -16 -34 4 -4 9 -1 20 6 25 10 7 9 9 -2 5 -8 -2 -15 -10
-15 -18 0 -8 -9 -16 -19 -19 -11 -3 -22 -12 -24 -20 -5 -13 -3 -13 13 0 17 14
18 13 12 -3 -4 -10 -7 -21 -7 -23 0 -3 -4 -2 -10 1 -6 4 -10 -25 -10 -80 0
-83 -1 -87 -32 -121 -18 -20 -45 -45 -60 -56 l-28 -19 -10 25 c-5 14 -14 26
-20 26 -17 0 -23 -29 -9 -46 8 -9 15 -52 17 -106 l5 -90 -24 7 c-13 4 -49 26
-79 49 -44 33 -56 48 -58 74 -2 18 -12 38 -23 46 -13 9 -19 23 -17 36 3 21 7
18 55 -26 28 -27 53 -58 55 -69 2 -14 11 -20 28 -20 20 0 26 6 28 28 2 20 -1
27 -13 27 -23 0 -135 109 -135 132 0 26 21 63 29 51 16 -23 72 -53 99 -53 42
0 97 35 112 71 14 32 8 105 -9 122 -7 7 -15 6 -27 -4 -16 -13 -17 -11 -11 21
3 19 9 46 12 60 3 14 -2 7 -10 -15 -9 -22 -14 -52 -11 -67 6 -31 -18 -96 -39
-104 -7 -3 -23 -1 -34 6 -12 6 -21 7 -21 2 0 -5 10 -14 23 -19 29 -14 61 9 71
50 4 17 11 25 18 21 7 -4 8 -3 4 4 -4 7 -4 12 -1 12 11 0 32 -63 28 -81 -6
-21 -43 -57 -43 -41 0 6 5 14 10 17 15 9 12 25 -6 25 -8 0 -13 -4 -9 -9 3 -5
0 -13 -6 -16 -5 -4 -8 -14 -4 -23 5 -13 2 -12 -14 2 -18 16 -25 17 -50 6 -31
-12 -76 0 -52 14 6 4 11 2 11 -3 0 -6 7 -11 15 -11 13 0 13 3 -2 18 -10 11
-26 22 -35 25 -10 4 -18 12 -18 19 0 9 3 8 10 -2 8 -13 10 -12 11 5 1 11 1 23
0 28 -2 13 11 8 25 -11 12 -14 13 -15 8 -1 -3 10 0 20 7 25 8 5 10 3 4 -7 -8
-12 -6 -12 8 0 11 9 14 18 8 25 -9 11 -7 69 3 104 20 66 13 128 -9 92z"/>
<path d="M3836 729 c3 -5 13 -9 22 -9 13 0 14 -2 4 -8 -16 -11 69 -92 95 -91
16 0 15 2 -2 9 -20 8 -20 9 1 9 11 1 31 -10 44 -24 24 -25 16 -35 -10 -12 -8
6 -5 0 8 -14 25 -28 28 -59 10 -78 -11 -10 -10 -11 5 -6 9 4 17 15 17 24 0 13
2 14 9 2 5 -8 17 -16 26 -17 9 -1 20 -6 23 -10 4 -4 -1 -4 -10 -1 -10 3 4 -21
31 -54 44 -54 49 -65 54 -124 5 -74 20 -99 54 -92 12 2 20 0 17 -4 -3 -5 8
-14 23 -21 15 -7 38 -20 50 -29 16 -12 35 -15 73 -11 66 6 98 -10 106 -54 8
-45 73 -114 107 -114 32 0 34 14 6 38 -53 45 -79 76 -79 93 0 25 -61 69 -95
69 -16 0 -42 4 -59 10 -17 5 -51 14 -76 20 -81 20 -98 45 -114 168 -3 23 -46
76 -54 67 -7 -7 -32 15 -32 27 0 6 8 4 18 -3 14 -11 15 -11 5 1 -7 8 -13 23
-13 35 0 12 -5 26 -12 33 -16 16 -52 16 -42 0 4 -7 3 -8 -4 -4 -6 4 -9 13 -6
20 6 16 -54 76 -77 76 -9 0 -22 7 -29 15 -7 8 -16 12 -21 9 -5 -3 -9 1 -9 9 0
17 -35 50 -56 53 -8 1 -12 -2 -8 -7z"/>
<path d="M1990 616 c-7 -14 -22 -27 -34 -30 -29 -7 -143 -7 -188 0 -30 5 -40
2 -55 -17 -54 -67 -98 -109 -114 -109 -45 0 -69 -72 -27 -83 11 -3 34 1 49 9
19 9 61 14 131 14 172 0 209 15 194 77 -6 20 -12 24 -38 21 -26 -2 -33 -9 -43
-38 -11 -32 -15 -35 -48 -34 -124 1 -167 5 -167 15 0 5 23 35 51 65 l52 54
127 0 c127 0 128 0 134 24 3 13 9 31 12 40 10 26 -21 19 -36 -8z"/>
<path d="M3547 561 c-3 -15 -1 -18 11 -14 10 5 13 2 8 -6 -5 -7 -17 -10 -28
-8 -18 5 -18 4 -5 -11 29 -35 59 -111 51 -134 -14 -47 -78 -116 -112 -123 -18
-3 -30 -10 -27 -15 3 -5 -7 -5 -23 1 -24 8 -31 18 -36 49 -7 47 -21 58 -47 34
-24 -22 -25 -70 -1 -83 9 -6 11 -11 5 -11 -24 0 -28 -2 -66 -36 -68 -62 -87
-44 -87 84 0 94 -11 128 -54 167 -6 6 -28 30 -50 54 -27 30 -36 37 -31 21 5
-15 4 -20 -4 -16 -19 12 -12 -12 8 -26 11 -8 38 -36 60 -63 41 -50 41 -50 41
-135 -1 -55 -6 -94 -15 -110 -19 -32 -18 -45 1 -64 21 -22 35 -20 78 9 20 14
48 25 62 25 14 0 27 7 31 18 11 29 56 61 89 62 51 0 67 -35 65 -142 -2 -79 0
-88 16 -88 16 0 18 8 14 85 -3 85 3 101 29 70 7 -8 16 -13 20 -10 5 3 12 0 16
-6 5 -8 3 -9 -6 -4 -9 5 -10 2 -6 -11 3 -11 7 -43 8 -72 2 -34 7 -52 15 -52
16 0 18 112 3 141 -8 14 -7 19 2 19 8 0 32 20 56 45 47 50 61 50 91 1 11 -18
30 -43 41 -56 18 -21 21 -35 18 -87 -3 -47 0 -63 9 -63 10 0 13 21 13 78 0 64
-4 82 -18 95 -10 10 -22 15 -25 12 -4 -3 -5 -2 -2 1 2 4 -2 19 -11 35 -8 16
-12 39 -8 52 3 15 0 30 -10 40 -15 14 -11 16 42 23 31 3 75 16 96 26 36 19 41
19 51 4 21 -28 76 -14 75 19 0 5 -5 2 -11 -7 -13 -22 -37 -23 -60 -2 -16 14
-16 18 -4 31 8 8 15 19 15 24 0 5 -9 0 -19 -10 -18 -18 -21 -18 -54 -3 -19 10
-31 19 -26 22 5 3 -1 11 -12 19 -16 9 -19 9 -14 0 6 -8 4 -10 -4 -5 -7 5 -10
10 -7 13 3 3 -4 17 -14 31 -11 13 -20 31 -20 38 0 23 -49 29 -68 9 -16 -16
-16 -16 5 -4 26 16 48 1 56 -36 4 -22 1 -25 -23 -25 -15 0 -33 7 -40 15 -7 8
-25 15 -39 15 -40 0 -79 22 -86 48 -7 27 -21 29 -28 3z m153 -76 c7 -8 22 -15
34 -15 31 0 121 -79 106 -94 -6 -6 -47 -13 -92 -16 l-81 -5 -4 -45 c-3 -25 -9
-47 -14 -51 -5 -3 -7 -13 -3 -22 3 -10 1 -17 -6 -17 -6 0 -8 6 -4 13 4 6 -6 0
-23 -15 -46 -43 -83 -32 -83 25 0 16 -4 26 -10 22 -6 -4 -7 -11 -4 -17 4 -6 3
-8 -3 -5 -6 4 -8 -3 -6 -17 6 -30 -32 -44 -40 -15 -3 11 -1 22 4 25 5 3 6 11
3 17 -4 7 -3 9 1 4 5 -4 19 0 32 8 13 9 23 12 23 8 0 -4 15 7 33 24 17 18 45
35 60 39 37 9 46 33 21 53 -11 9 -25 35 -32 59 -8 25 -17 40 -24 36 -7 -4 -7
-9 0 -13 6 -3 13 -20 17 -36 6 -30 6 -30 -13 5 -12 23 -15 39 -9 48 14 17 102
16 117 -3z"/>
<path d="M1471 305 c-24 -19 -61 -40 -82 -45 -24 -7 -48 -23 -64 -44 -23 -30
-32 -34 -89 -41 -58 -6 -67 -10 -98 -44 -19 -21 -45 -42 -59 -46 -36 -11 -49
-25 -49 -50 0 -25 26 -41 44 -27 6 5 32 17 59 27 26 10 61 33 77 52 17 19 48
40 70 48 22 8 54 30 71 50 22 24 40 35 59 35 21 0 39 12 69 46 23 26 41 53 41
60 0 18 2 19 -49 -21z"/>
</g>
</svg>
